<svg xmlns="http://www.w3.org/2000/svg" xmlns:xlink="http://www.w3.org/1999/xlink" width="1000" zoomAndPan="magnify" viewBox="0 0 750 749.999995" height="1000" preserveAspectRatio="xMidYMid meet" version="1.0"><path fill="#000000" d="M 76.265625 436.339844 C 73.464844 436.214844 71.175781 435.226562 68.789062 434.558594 C 64.398438 433.320312 62.742188 430.015625 64.8125 425.820312 C 68.058594 419.304688 72.988281 414.664062 80.210938 412.851562 C 88.738281 410.6875 93.351562 404.648438 96.277344 396.894531 C 96.820312 395.464844 97.042969 393.589844 96.121094 392.445312 C 91.570312 386.847656 93.511719 381.0625 95.769531 375.566406 C 97.296875 371.78125 98.441406 368.890625 94.785156 365.617188 C 92.875 363.898438 92.523438 360.816406 92.238281 358.210938 C 91.953125 355.699219 90.710938 354.9375 88.484375 355.0625 C 87.464844 355.125 86.449219 355.160156 85.429688 355.0625 C 81.546875 354.714844 80.019531 352.011719 81.421875 348.417969 C 82.980469 344.351562 84.601562 340.347656 89.375 337.453125 C 85.9375 336.753906 83.710938 336.5 81.675781 335.386719 C 78.875 333.863281 77.664062 331.921875 79.320312 328.902344 C 80.179688 327.34375 81.132812 325.882812 81.992188 324.324219 C 83.234375 322.070312 84.664062 320.066406 83.394531 316.984375 C 81.867188 313.328125 83.359375 309.640625 86.796875 307.859375 C 89.183594 306.621094 89.214844 305.253906 88.292969 303.285156 C 87.210938 300.964844 86.703125 298.707031 88.738281 296.640625 C 90.964844 294.382812 93.191406 295.71875 95.355469 296.800781 C 96.945312 297.59375 98.441406 298.515625 100.035156 299.34375 C 104.328125 301.566406 108.050781 299.691406 108.941406 294.859375 C 110.023438 288.949219 114.734375 285.894531 120.492188 287.328125 C 121.765625 287.644531 123.003906 287.613281 124.183594 286.945312 C 125.933594 285.929688 127.90625 285.894531 129.75 286.183594 C 132.421875 286.5625 133.824219 287.960938 132.773438 290.949219 C 131.117188 295.589844 131.945312 297.148438 136.464844 298.355469 C 139.550781 299.183594 140.632812 301.917969 138.753906 304.523438 C 136.558594 307.605469 133.347656 309.035156 129.625 309.289062 C 128.222656 309.386719 126.824219 309.257812 125.421875 309.289062 C 124.375 309.324219 123.195312 309.578125 123.324219 310.910156 C 123.417969 312.089844 124.5625 312.121094 125.421875 311.992188 C 129.304688 311.484375 132.996094 313.675781 136.625 313.359375 C 144.417969 312.660156 152.5 312.914062 159.660156 308.464844 C 164.207031 305.636719 170.984375 310.023438 171.84375 316.0625 C 172.035156 317.429688 171.652344 318.953125 172.957031 319.9375 C 177.285156 323.277344 176.648438 328.011719 176.394531 332.527344 C 176.171875 336.53125 172.417969 338.949219 168.597656 337.484375 C 165.863281 336.4375 165.640625 337.929688 165.925781 339.773438 C 166.214844 341.679688 167.292969 343.238281 168.664062 344.667969 C 172.355469 348.578125 172.542969 350.613281 169.203125 354.96875 C 167.484375 357.160156 166.816406 358.433594 169.777344 360.210938 C 173.054688 362.214844 171.84375 365.203125 169.902344 367.394531 C 168.3125 369.207031 166.847656 371.082031 165.386719 372.957031 C 164.335938 374.292969 162.902344 375.4375 161.121094 374.800781 C 159.339844 374.167969 157.78125 374.484375 156.03125 374.867188 C 153.773438 375.34375 151.546875 375.121094 149.445312 373.785156 C 148.554688 373.214844 147.15625 372.992188 146.390625 374.230469 C 145.660156 375.40625 146.675781 376.234375 147.472656 376.742188 C 150.113281 378.457031 152.816406 379.984375 154.28125 383.066406 C 154.824219 384.179688 156.605469 383.957031 157.84375 383.640625 C 159.339844 383.226562 158.992188 382.082031 158.894531 380.875 C 158.609375 376.898438 161.25 375.089844 165.035156 376.488281 C 168.34375 377.695312 177.191406 375.597656 179.386719 373.054688 C 179.609375 372.800781 179.957031 372.355469 179.894531 372.132812 C 177.539062 366.21875 182.949219 365.234375 185.972656 363.328125 C 188.996094 361.421875 190.265625 359.386719 189.949219 355.953125 C 189.757812 353.695312 189.886719 351.375 190.042969 349.085938 C 190.296875 345.433594 193.765625 341.746094 197.332031 341.394531 C 199.75 341.140625 201.054688 342.984375 201.910156 344.765625 C 202.769531 346.542969 203.882812 347.148438 205.792969 347.085938 C 210.726562 346.925781 215.402344 349.5 220.429688 348.675781 C 220.78125 348.609375 221.191406 348.769531 221.542969 348.898438 C 223.101562 349.4375 224.503906 352.804688 226.253906 349.46875 C 227.144531 347.785156 229.371094 347.085938 229.210938 344.476562 C 229.050781 341.808594 232.457031 339.996094 231.566406 336.59375 C 231.214844 335.292969 233.441406 335.070312 234.9375 335.546875 C 236.75 336.117188 238.46875 338.660156 240.410156 336.816406 C 242.480469 334.878906 243.878906 332.175781 244.707031 329.445312 C 245.246094 327.601562 244.324219 324.960938 247.027344 324.421875 C 250.148438 323.785156 253.457031 323.53125 255.808594 326.457031 C 257.210938 328.171875 258.671875 329.316406 261.027344 328.488281 C 264.71875 327.1875 265.324219 324.199219 262.460938 320.195312 C 261.125 318.316406 259.4375 316.695312 256.796875 316.984375 C 249.542969 317.714844 246.328125 312.34375 242.828125 307.574219 C 241.363281 305.605469 243.371094 302.394531 246.804688 301.597656 C 250.050781 300.835938 249.796875 299.246094 248.84375 296.894531 C 246.742188 291.808594 247.632812 289.203125 252.4375 287.074219 C 261.695312 282.941406 271.78125 281.921875 281.613281 280.046875 C 283.203125 279.761719 284.921875 279.824219 286.417969 280.8125 C 287.5625 281.574219 288.488281 281.289062 289.472656 280.398438 C 290.585938 279.410156 291.191406 277.855469 290.460938 277.027344 C 287.117188 273.339844 288.230469 268.320312 286.355469 264.21875 C 286.003906 263.421875 286.066406 262.40625 284.890625 262.246094 C 283.808594 262.121094 283.140625 262.945312 282.792969 263.644531 C 280.308594 268.984375 276.523438 271.050781 270.796875 268.730469 C 269.839844 268.351562 269.109375 269.113281 268.28125 269.398438 C 262.839844 271.273438 257.402344 273.691406 251.769531 269.941406 C 251.484375 269.75 251.003906 269.652344 250.65625 269.71875 C 244.769531 271.242188 240.0625 266.984375 234.589844 266.378906 C 233.15625 266.222656 232.136719 265.140625 231.183594 264.089844 C 229.816406 262.566406 228.449219 261.167969 226.539062 260.214844 C 224.757812 259.324219 224.054688 257.382812 223.546875 255.539062 C 222.019531 250.105469 220.460938 244.667969 219.15625 239.171875 C 218.617188 236.882812 218.105469 234.308594 220.714844 232.65625 C 221.414062 232.210938 221.671875 231.574219 221.859375 230.777344 C 223.578125 223.785156 231.121094 217.554688 238.121094 217.492188 C 241.332031 217.460938 243.210938 215.777344 244.769531 213.265625 C 247.472656 208.941406 251.707031 206.304688 255.808594 203.539062 C 256.445312 203.125 257.242188 202.871094 257.6875 202.296875 C 260.773438 198.199219 266.339844 197.65625 269.683594 193.90625 C 270.191406 193.335938 271.304688 192.953125 272.101562 193.015625 C 277.605469 193.429688 281.136719 190.285156 284.351562 186.53125 C 286.386719 184.148438 288.550781 182.304688 291.984375 182.210938 C 294.5625 182.113281 295.742188 178.617188 298.539062 178.777344 C 301.246094 178.9375 303.503906 177.949219 305.539062 176.457031 C 310.695312 172.707031 317.28125 172.007812 322.5 168.476562 C 325.363281 166.539062 327.304688 163.550781 330.167969 161.453125 C 334.175781 158.527344 338.695312 157.226562 343.339844 156.84375 C 345.28125 156.683594 345.757812 156.558594 345.695312 154.875 C 345.535156 150.804688 347.378906 148.992188 351.515625 148.546875 C 354.601562 148.230469 357.464844 146.515625 360.394531 145.371094 C 366.566406 142.984375 371.910156 143.875 377.351562 147.277344 C 382.378906 150.421875 387.722656 152.042969 393.671875 149.40625 C 399.367188 146.894531 403.632812 150.359375 407.800781 153.441406 C 409.390625 154.621094 410.410156 155.984375 412.988281 155.445312 C 415.976562 154.84375 418.839844 158.179688 419.253906 162.246094 C 419.542969 164.886719 420.464844 167.207031 422.214844 169.082031 C 425.839844 172.992188 427.144531 177.601562 427.6875 182.84375 C 428.003906 185.863281 428.417969 188.503906 426.507812 190.984375 C 425.746094 191.96875 424.886719 193.429688 423.898438 193.621094 C 418.363281 194.703125 419.507812 199.277344 419.414062 202.617188 C 419.320312 206.273438 418.808594 209.292969 416.742188 212.535156 C 414.417969 216.15625 412.921875 220.320312 410.3125 223.945312 C 408.339844 226.679688 407.035156 229.855469 404.171875 231.957031 C 402.390625 233.257812 402.390625 235.101562 403.15625 237.105469 C 405.253906 242.507812 403.632812 245.242188 398 246.894531 C 394.277344 247.976562 390.269531 248.355469 386.929688 250.644531 C 385.816406 251.410156 384.511719 251.34375 383.238281 251.28125 C 377.320312 251.058594 371.273438 250.582031 370.703125 259.070312 C 373.535156 259.003906 376.015625 261.167969 378.972656 262.183594 C 381.265625 262.976562 383.046875 262.757812 384.574219 260.5625 C 386.769531 257.414062 389.695312 256.113281 393.484375 257.988281 C 395.359375 258.910156 395.871094 257.957031 396.125 256.175781 C 396.886719 250.644531 399.910156 248.578125 405.382812 250.105469 C 407.101562 250.582031 408.054688 249.722656 409.230469 249.121094 C 413.019531 247.148438 414.800781 247.753906 416.675781 251.664062 C 417.378906 253.15625 418.015625 254.714844 419.0625 255.953125 C 420.972656 258.273438 421.449219 260.59375 420.113281 263.328125 C 419 265.648438 419 267.398438 422.246094 267.96875 C 424.410156 268.382812 426.699219 269.8125 426.828125 272.003906 C 427.050781 275.851562 430.390625 276.167969 432.140625 275.980469 C 434.71875 275.726562 437.039062 276.011719 439.9375 276.867188 C 438.757812 273.785156 438.855469 271.050781 438.917969 268.320312 C 438.980469 265.617188 440.574219 263.773438 442.578125 262.40625 C 445.34375 260.5 448.8125 261.898438 449.066406 265.363281 C 449.289062 268.445312 450.785156 268.191406 452.410156 267.269531 C 454.382812 266.1875 455.8125 266.730469 457.210938 267.96875 C 458.867188 269.460938 458.261719 271.210938 457.53125 272.863281 C 456.957031 274.136719 456.289062 275.34375 455.558594 276.519531 C 454.890625 277.632812 455.175781 278.425781 456.066406 279.15625 C 456.957031 279.890625 458.007812 280.109375 458.804688 279.253906 C 462.304688 275.566406 465.867188 275.628906 470.386719 277.824219 C 473.757812 279.445312 477.894531 278.332031 481.710938 278.171875 C 483.207031 278.109375 483.238281 276.710938 483.300781 275.566406 C 483.460938 272.738281 485.050781 271.304688 487.757812 270.671875 C 491.066406 269.875 494.152344 268.605469 496.792969 266.1875 C 499.753906 263.488281 503.632812 262.375 507.515625 261.769531 C 509.105469 261.515625 510.539062 261.261719 511.523438 259.992188 C 514.355469 256.367188 518.332031 256.527344 521.960938 257.480469 C 525.585938 258.433594 527.148438 261.992188 527.65625 265.394531 C 528.003906 267.84375 528.960938 269.242188 530.964844 270.449219 C 533.988281 272.261719 535.671875 274.867188 535.671875 278.585938 C 535.671875 281.414062 537.773438 282.464844 539.90625 280.589844 C 542.578125 278.234375 545.25 279.378906 548.113281 279.191406 C 551.898438 278.902344 556.738281 279.824219 559.917969 275.914062 C 562.050781 273.277344 564.882812 272.417969 568.03125 274.039062 C 570.195312 275.152344 571.5 277.28125 570.195312 279.410156 C 567.839844 283.226562 568.191406 287.996094 565.230469 291.871094 C 569.941406 290.726562 573.886719 294.222656 578.53125 293.175781 C 580.21875 292.792969 581.902344 293.875 583.335938 295.050781 C 585.816406 297.085938 587.632812 295.78125 588.648438 293.398438 C 589.316406 291.871094 589.730469 290.25 591.003906 289.136719 C 593.613281 286.816406 595.171875 284.242188 594.726562 280.523438 C 594.441406 278.269531 595.839844 276.933594 598.195312 276.964844 C 601.34375 276.996094 604.492188 276.359375 607.546875 277.917969 C 609.902344 279.125 611.8125 276.867188 613.976562 276.425781 C 615.535156 276.105469 617.09375 275.4375 618.714844 275.152344 C 622.28125 274.546875 624.730469 275.851562 625.589844 279.347656 C 626.480469 283.066406 628.261719 285.164062 632.398438 284.6875 C 635.292969 284.339844 636.660156 287.167969 638.664062 288.027344 C 640.511719 288.789062 643.503906 287.007812 645.953125 288.152344 C 648.304688 289.265625 649.324219 291.585938 650.023438 293.875 C 651.394531 298.421875 654.035156 300.835938 658.773438 301.3125 C 660.046875 301.441406 661.257812 301.503906 662.402344 302.234375 C 665.265625 304.109375 668.160156 305.382812 671.53125 303.09375 C 672.519531 302.425781 674.554688 302.363281 675.128906 303.285156 C 677.070312 306.335938 681.046875 307.480469 682.097656 311.390625 C 682.859375 314.3125 686.265625 315.679688 686.867188 318.828125 C 688.269531 318.316406 687.757812 317.269531 687.886719 316.507812 C 688.523438 312.976562 691.101562 311.355469 694.601562 312.375 C 695.808594 312.722656 697.082031 313.011719 698.164062 313.613281 C 702.585938 316.125 706.753906 314.664062 710.859375 312.820312 C 712.671875 311.992188 714.484375 311.707031 715.726562 313.328125 C 718.144531 316.476562 721.675781 318.445312 723.585938 322.164062 C 725.78125 326.390625 725.273438 328.933594 720.816406 330.777344 C 717.160156 332.273438 718.398438 335.769531 719.417969 337.515625 C 722.058594 342.09375 720.785156 346.226562 719.417969 350.550781 C 718.558594 353.25 717.316406 356.175781 716.9375 358.65625 C 716.585938 360.847656 718.429688 364.503906 720.5625 366.886719 C 723.457031 370.160156 724.03125 373.59375 721.929688 377.695312 C 720.53125 380.429688 718.113281 381.445312 715.664062 382.207031 C 713.785156 382.8125 712.863281 383.925781 711.65625 385.261719 C 707.835938 389.488281 697.941406 395.8125 691.101562 392.410156 C 689.796875 391.777344 688.394531 391.808594 686.996094 391.808594 C 680.632812 391.710938 674.269531 391.554688 667.90625 391.585938 C 665.648438 391.617188 663.609375 390.949219 661.703125 390.058594 C 657.152344 387.898438 652.664062 387.644531 648.242188 390.15625 C 643.566406 392.792969 639.492188 391.617188 635.515625 388.660156 C 634.976562 388.246094 634.371094 387.359375 633.574219 388.058594 C 632.96875 388.597656 633.066406 389.648438 633.480469 390.21875 C 637.457031 395.621094 635.421875 399.816406 630.996094 403.664062 C 630.457031 404.109375 630.234375 404.96875 629.980469 405.667969 C 629.757812 406.335938 628.929688 407.035156 629.535156 407.734375 C 630.203125 408.527344 631.441406 408.433594 631.984375 407.890625 C 636.628906 403.378906 641.273438 405.667969 645.984375 407.699219 C 646.652344 407.988281 647.480469 408.082031 648.210938 408.050781 C 651.996094 407.828125 654.382812 409.734375 656.132812 412.882812 C 658.136719 416.472656 660.746094 418.828125 665.425781 418.921875 C 671.851562 419.050781 676.433594 425.46875 674.363281 431.476562 C 673.125 435.101562 673.539062 438.980469 671.789062 442.476562 C 670.546875 444.921875 668.605469 446.320312 666.1875 446.386719 C 663.386719 446.480469 661.128906 447.972656 658.550781 448.515625 C 657.183594 448.800781 655.972656 449.976562 656.132812 451.566406 C 656.769531 458.304688 651.871094 460.878906 647.097656 463.261719 C 644.519531 464.535156 643.597656 465.457031 643.46875 468.824219 C 643.246094 473.976562 643.28125 480.269531 636.28125 482.398438 C 635.101562 482.75 633.511719 483.320312 633.289062 485.035156 C 632.8125 488.375 630.140625 489.933594 627.53125 490.441406 C 622.882812 491.332031 619.480469 494.097656 615.980469 496.734375 C 613.277344 498.769531 610.601562 499.085938 608.503906 496.703125 C 605.988281 493.808594 603.636719 495.242188 601.25 496.195312 C 599.246094 496.988281 597.496094 498.039062 595.140625 497.242188 C 592.816406 496.449219 591.800781 497.847656 591.863281 500.039062 C 592.023438 505.890625 590.050781 510.464844 585.054688 513.929688 C 581.617188 516.316406 582.507812 520.828125 581.554688 524.324219 C 580.375 528.710938 578.277344 530.078125 574.425781 527.472656 C 572.898438 526.453125 572.453125 526.835938 571.628906 528.234375 C 569.75 531.382812 568.921875 534.65625 568.953125 538.34375 C 568.984375 544.253906 567.746094 549.691406 561.285156 552.136719 C 560.140625 552.582031 560.078125 553.664062 560.046875 554.710938 C 559.980469 557.253906 559.695312 559.828125 559.949219 562.339844 C 560.585938 568.699219 558.933594 574.609375 556.832031 580.460938 C 555.367188 584.496094 549.960938 586.945312 546.140625 584.84375 C 541.65625 582.398438 537.296875 580.203125 531.855469 580.746094 C 528.738281 581.0625 527.148438 578.394531 527.972656 575.246094 C 528.261719 574.230469 528.738281 573.339844 527.816406 572.480469 C 523.964844 568.855469 520.371094 564.882812 515.152344 563.039062 C 513.464844 562.4375 511.90625 562.53125 510.539062 563.804688 C 506.625 567.457031 501.914062 568.855469 496.632812 568.667969 C 495.550781 568.636719 494.46875 569.238281 493.390625 569.621094 C 490.144531 570.699219 487.121094 570.511719 484.449219 568.222656 C 480.949219 565.234375 476.175781 564.691406 472.007812 566.757812 C 471.339844 567.109375 470.640625 567.457031 469.972656 567.808594 C 465.582031 570.066406 462.304688 568.953125 460.679688 564.40625 C 459.121094 560.050781 456.128906 557.984375 451.613281 557.890625 C 449.226562 557.828125 446.777344 558.082031 444.515625 556.875 C 443.691406 556.429688 442.800781 556.746094 442.035156 557.351562 C 436.117188 561.929688 429.214844 563.582031 421.925781 564.152344 C 419.765625 564.3125 418.300781 565.074219 417.949219 567.425781 C 417.535156 570.253906 415.691406 571.367188 412.988281 571.8125 C 408.023438 572.609375 403.089844 573.65625 398.160156 574.515625 C 393.101562 575.40625 388.328125 573.941406 383.84375 571.910156 C 381.996094 571.082031 380.820312 570.414062 378.6875 571.367188 C 375.0625 572.988281 372.675781 570.988281 371.847656 566.28125 C 371.117188 562.246094 371.117188 562.246094 367.742188 564.691406 C 367.425781 564.914062 367.171875 565.328125 366.851562 565.359375 C 360.550781 566.3125 356.382812 570.765625 351.515625 574.164062 C 346.171875 577.917969 339.457031 578.550781 333.410156 580.746094 C 333.0625 580.871094 332.585938 580.9375 332.296875 580.808594 C 327.652344 578.871094 323.453125 580.902344 318.933594 581.539062 C 315.054688 582.113281 310.21875 581.601562 305.890625 580.746094 C 304.777344 580.523438 303.855469 580.015625 302.613281 580.585938 C 301.054688 581.316406 299.8125 580.238281 299.050781 579.09375 C 297.457031 576.675781 295.964844 574.164062 294.660156 571.589844 C 292.019531 566.3125 294.371094 562.5 300.195312 562.371094 C 304.746094 562.277344 305.316406 561.355469 303.441406 557.128906 C 300.546875 550.644531 293.640625 548.640625 287.753906 552.613281 C 286.195312 553.664062 284.574219 554.679688 282.980469 555.730469 C 281.613281 556.652344 279.925781 557.03125 278.621094 556.367188 C 272.449219 553.121094 267.679688 556.300781 262.839844 559.480469 C 259.5625 561.640625 256.320312 563.835938 252.183594 564.152344 C 249.382812 564.375 248.84375 566.792969 248.585938 568.855469 C 247.953125 574.230469 244.324219 577.628906 240.601562 580.714844 C 238.566406 582.398438 237.515625 583.382812 238.566406 586.246094 C 240.09375 590.34375 235.703125 596.257812 231.121094 596.128906 C 226.953125 596.035156 224.214844 597.6875 221.734375 600.738281 C 219.125 603.949219 215.53125 605.539062 211.363281 605.378906 C 206.078125 605.1875 200.765625 606.460938 195.546875 604.203125 C 192.144531 602.742188 190.964844 599.59375 189.089844 596.988281 C 188.199219 595.714844 189.34375 594.605469 190.042969 593.554688 C 193.226562 588.820312 190.488281 583.257812 184.953125 582.492188 C 180.722656 581.921875 176.585938 580.617188 172.226562 581 C 169.203125 581.253906 166.402344 582.558594 163.253906 582.492188 C 154.1875 582.335938 145.085938 582.621094 135.988281 582.460938 C 129.242188 582.335938 122.71875 580.902344 116.417969 578.488281 C 113.621094 577.40625 111.648438 575.597656 110.566406 572.894531 C 109.132812 569.335938 106.652344 567.011719 102.863281 566.378906 C 97.773438 565.519531 93.066406 562.59375 87.464844 564.089844 C 83.359375 565.203125 79.449219 563.582031 76.105469 560.972656 C 74.101562 559.386719 71.558594 558.972656 69.363281 557.730469 C 62.933594 554.171875 61.726562 548.515625 61.660156 542.0625 C 61.628906 539.105469 62.425781 535.957031 59.464844 533.636719 C 58.066406 532.558594 57.207031 532.269531 55.519531 533.351562 C 51.640625 535.832031 48.171875 538.945312 42.859375 538.53125 C 33.757812 537.832031 31.5625 534.273438 33.183594 526.675781 C 33.917969 523.242188 31.660156 520.699219 30.320312 517.96875 C 27.363281 511.992188 26.058594 506.144531 30.097656 500.199219 C 30.832031 499.148438 30.355469 498.578125 29.75 497.910156 C 28.792969 496.894531 27.777344 495.972656 26.757812 494.984375 C 25.007812 493.300781 24.59375 491.234375 25.484375 489.042969 C 26.410156 486.753906 28.507812 485.292969 30.640625 486.117188 C 35.730469 488.023438 38.5625 484.527344 41.902344 482.175781 C 44.609375 480.238281 47.21875 478.265625 50.78125 478.296875 C 52.242188 478.332031 53.136719 477.1875 53.707031 476.136719 C 55.332031 473.277344 56.921875 470.382812 58.195312 467.363281 C 58.925781 465.582031 59.402344 463.421875 55.902344 463.929688 C 53.136719 464.3125 51.449219 462.339844 51.257812 459.988281 C 51.003906 456.777344 49.699219 453.886719 49.316406 450.707031 C 48.710938 445.8125 53.929688 440.789062 58.511719 442.445312 C 60.769531 443.269531 62.710938 443.367188 64.621094 442.03125 C 67.421875 440.089844 70.984375 440.503906 73.878906 438.851562 C 74.644531 438.214844 75.535156 437.738281 76.265625 436.339844 Z M 372.355469 344.921875 C 372.769531 344.445312 373.054688 344.191406 373.214844 343.90625 C 374.933594 340.570312 376.046875 336.691406 380.789062 336.371094 C 381.613281 336.308594 381.648438 335.484375 381.550781 334.878906 C 381.074219 332.019531 381.042969 329.03125 379.230469 326.550781 C 375.792969 321.878906 377.765625 317.332031 383.714844 316.1875 C 384.160156 316.09375 384.890625 315.964844 385.019531 315.679688 C 387.152344 309.894531 392.210938 312.789062 395.964844 311.707031 C 396.441406 308.910156 395.902344 306.082031 393.960938 303.695312 C 393.324219 302.933594 392.625 301.566406 391.191406 302.234375 C 389.917969 302.839844 388.488281 303.792969 389.027344 305.414062 C 390.460938 309.800781 387.597656 310.625 384.445312 311.484375 C 381.773438 312.214844 379.195312 313.105469 376.332031 313.296875 C 372.738281 313.550781 370.289062 318.574219 372.039062 321.65625 C 373.597656 324.390625 374.394531 326.902344 373.34375 330.238281 C 371.847656 334.816406 370.542969 339.613281 372.355469 344.921875 Z M 372.355469 344.921875 " fill-opacity="1" fill-rule="nonzero"/></svg>