<svg xmlns="http://www.w3.org/2000/svg" xmlns:xlink="http://www.w3.org/1999/xlink" width="1000" zoomAndPan="magnify" viewBox="0 0 750 749.999995" height="1000" preserveAspectRatio="xMidYMid meet" version="1.0"><defs><clipPath id="eda16f00db"><path d="M 29.675781 78 L 720 78 L 720 672 L 29.675781 672 Z M 29.675781 78 " clip-rule="nonzero"/></clipPath></defs><g clip-path="url(#eda16f00db)"><path fill="#000000" d="M 185.628906 600.117188 C 190.484375 598.207031 194.875 598.144531 198.289062 601.589844 C 200.296875 603.628906 201.390625 606.605469 202.738281 609.234375 C 204.117188 611.898438 205.496094 614.40625 207.722656 616.570312 C 210.105469 618.855469 209.980469 622.460938 207.972656 624.464844 C 202.960938 629.417969 200.296875 636.058594 195.3125 640.980469 C 190.738281 645.460938 187.382812 645.210938 183.496094 640.164062 C 183.058594 639.570312 182.808594 638.628906 181.992188 638.597656 C 174.972656 638.472656 171.335938 632.519531 166.132812 629.324219 C 162.625 627.160156 162.277344 627.035156 160.710938 630.890625 C 159.550781 633.742188 154.820312 636.875 152.03125 636.65625 C 149.054688 636.40625 144.101562 632.832031 144.820312 630.136719 C 146.199219 625 142.660156 623.589844 140.121094 621.050781 C 139.273438 620.203125 138.523438 619.199219 137.613281 618.292969 C 135.199219 615.847656 134.886719 612.277344 137.019531 609.644531 C 140.277344 605.664062 138.117188 601.589844 137.175781 597.703125 C 136.578125 595.230469 134.886719 593.035156 134.886719 590.277344 C 134.886719 588.648438 133.445312 587.738281 132.441406 586.644531 C 129.183594 583.070312 129.714844 579.246094 133.539062 576.457031 C 136.265625 574.484375 139.429688 573.167969 141.78125 570.691406 C 143.726562 568.65625 145.949219 567.214844 144.695312 563.453125 C 144.007812 561.355469 145.417969 558.378906 146.328125 555.964844 C 147.109375 553.898438 147.109375 552.203125 146.042969 550.261719 C 144.007812 546.5625 142.472656 542.617188 139.527344 539.386719 C 136.894531 536.535156 137.269531 532.683594 140.183594 530.050781 C 143.316406 527.261719 147.109375 525.097656 147.484375 520.179688 C 147.582031 519.082031 148.929688 518.269531 150.117188 517.703125 C 153.535156 516.105469 157.359375 514.789062 160.867188 514.976562 C 167.953125 515.355469 173.75 511.5 180.332031 510.496094 C 182.902344 510.121094 182.460938 508.960938 181.710938 507.207031 C 179.265625 501.503906 180.582031 496.835938 186.003906 493.953125 C 188.792969 492.480469 188.667969 489.5625 190.328125 487.714844 C 194.152344 483.578125 195.875 478.316406 198.507812 473.519531 C 199.386719 471.953125 199.605469 470.730469 198.789062 469.039062 C 197.726562 466.847656 197.664062 464.402344 198.980469 462.175781 C 199.667969 461.015625 199.730469 459.796875 199.667969 458.574219 C 199.480469 454.6875 201.582031 452.554688 205.058594 451.523438 C 208.097656 450.613281 208.632812 449.078125 209.320312 445.664062 C 210.855469 438.078125 206.03125 433.878906 202.832031 428.710938 C 201.359375 426.296875 200.953125 423.570312 199.824219 421.09375 C 199.480469 420.3125 199.417969 418.964844 198.476562 419.121094 C 193.839844 419.808594 190.988281 416.738281 188.074219 414.171875 C 183.121094 409.78125 178.042969 411.945312 173.058594 413.542969 C 170.898438 414.234375 168.953125 414.578125 166.949219 413.480469 C 162.59375 411.097656 157.484375 410.722656 153.222656 408.121094 C 152.28125 407.558594 151.277344 407.027344 150.371094 406.367188 C 148.144531 404.738281 146.105469 404.800781 143.914062 406.492188 C 139.242188 410.128906 132.597656 408.121094 130.8125 402.542969 C 130.40625 401.289062 130.5 400.070312 131.34375 398.972656 C 131.816406 398.34375 132.191406 397.625 131.628906 396.933594 C 130.9375 396.089844 130.0625 396.433594 129.246094 396.808594 C 126.488281 398.125 124.230469 400.132812 122.195312 402.324219 C 120.785156 403.859375 118.714844 404.488281 117.554688 403.203125 C 114.703125 400.101562 111.195312 400.539062 107.808594 400.664062 C 103.359375 400.851562 99.285156 399.191406 95.023438 398.472656 C 93.109375 398.125 91.917969 398.34375 90.726562 399.472656 C 86.402344 403.609375 80.605469 404.707031 75.277344 406.585938 C 73.367188 407.277344 71.484375 407.589844 70.199219 409.34375 C 69.007812 410.941406 67.191406 411.632812 65.46875 412.226562 C 62.679688 413.199219 60.765625 411.820312 60.078125 409.125 C 58.507812 403.140625 60.640625 398.566406 66.375 395.808594 C 70.074219 394.019531 73.929688 392.578125 77.691406 390.917969 C 78.566406 390.542969 79.320312 389.949219 81.167969 388.789062 C 76.09375 389.320312 73.742188 386.65625 71.296875 384.179688 C 68.414062 381.265625 69.257812 377.382812 73.269531 376.503906 C 76.5625 375.785156 78.882812 374.121094 81.074219 371.835938 C 81.609375 371.300781 82.609375 370.675781 82.171875 370.113281 C 79.945312 367.261719 80.824219 362.652344 76.21875 360.960938 C 73.050781 359.769531 70.324219 357.453125 66.878906 356.449219 C 64.996094 355.917969 63.523438 354.097656 63.085938 352.0625 C 62.363281 348.867188 60.390625 346.546875 58.414062 344.101562 C 55.09375 339.996094 52.679688 335.453125 53.777344 329.8125 C 53.902344 329.21875 53.964844 328.308594 53.621094 327.996094 C 50.613281 325.363281 51.363281 321.605469 50.359375 318.375 C 49.546875 315.804688 50.296875 314.363281 51.898438 312.765625 C 52.960938 311.703125 54.027344 310.480469 55.46875 310.132812 C 59.730469 309.164062 62.992188 305.96875 67.441406 305.246094 C 70.542969 304.746094 71.671875 300.265625 69.480469 298.101562 C 66.28125 294.9375 66.691406 291.175781 68.070312 287.699219 C 70.199219 282.371094 70.765625 277.355469 67.816406 272.1875 C 67.160156 271.027344 66.40625 269.585938 66.941406 268.269531 C 68.507812 264.257812 66.53125 262.222656 63.179688 260.78125 C 58.761719 258.902344 55.972656 255.265625 53.308594 251.472656 C 51.332031 248.683594 50.707031 245.925781 52.835938 242.886719 C 54.75 240.191406 54.058594 237.65625 52.054688 235.367188 C 50.800781 233.957031 49.421875 232.703125 47.980469 231.511719 C 46.097656 229.945312 44.09375 228.003906 44 225.808594 C 43.78125 219.824219 41.304688 214.433594 40.425781 208.667969 C 40.207031 207.320312 40.238281 205.972656 39.484375 204.71875 C 35.601562 198.171875 37.261719 190.652344 35.945312 183.664062 C 35.535156 181.46875 37.386719 179.558594 36.445312 176.832031 C 35.601562 174.355469 36.382812 171.660156 32.464844 171.378906 C 31.085938 171.285156 31.210938 169.152344 31.242188 167.777344 C 31.304688 164.796875 31.714844 161.789062 30.082031 159 C 29.707031 158.34375 29.613281 156.996094 30.050781 156.496094 C 33.78125 151.855469 32.652344 145.496094 35.726562 140.605469 C 36.980469 138.632812 37.792969 136.597656 39.707031 134.933594 C 42.527344 132.523438 42.402344 128.449219 42.902344 125.191406 C 43.75 119.550781 46.820312 115.476562 50.925781 112.59375 C 56.691406 108.550781 61.238281 103.441406 66.21875 98.679688 C 68.757812 96.265625 71.609375 94.230469 74.273438 92.003906 C 76.5 90.125 77.535156 87.617188 77.785156 84.796875 C 78.285156 78.84375 84.113281 76.210938 89.160156 79.753906 C 94.269531 83.324219 99.003906 87.429688 104.988281 89.59375 C 107.214844 90.40625 109.46875 91.160156 111.570312 92.191406 C 116.648438 94.699219 117.148438 98.992188 112.414062 101.90625 C 107.527344 104.914062 104.296875 108.925781 101.855469 114.097656 C 99.972656 118.109375 96.746094 121.585938 97.84375 126.476562 C 99.035156 131.800781 100.285156 137.128906 102.417969 142.175781 C 103.109375 143.773438 104.296875 144.460938 105.992188 143.300781 C 106.304688 143.082031 106.773438 143.113281 107.023438 142.894531 C 113.167969 137.945312 118.933594 140.074219 124.480469 143.992188 C 126.207031 145.214844 127.679688 145.496094 129.558594 144.429688 C 131.410156 143.363281 132.003906 141.828125 132.097656 139.792969 C 132.222656 136.660156 130.75 133.964844 129.839844 131.144531 C 129.339844 129.546875 129.027344 128.011719 128.964844 126.378906 C 128.902344 123.558594 128.683594 120.457031 131.941406 119.394531 C 135.167969 118.328125 138.554688 118.171875 141.34375 121.054688 C 145.230469 125.097656 149.648438 128.636719 151.875 134.058594 C 152.53125 135.625 153.722656 136.566406 155.445312 137.035156 C 161.589844 138.789062 166.351562 142.207031 169.363281 148.066406 C 171.773438 152.765625 175.722656 155.929688 180.519531 158.1875 C 184.03125 159.816406 187.414062 161.726562 190.894531 163.417969 C 193.242188 164.578125 195.5625 165.707031 198.351562 165.582031 C 200.859375 165.488281 202.644531 166.898438 203.742188 169.027344 C 204.871094 171.222656 203.304688 172.976562 202.238281 174.480469 C 200.484375 176.957031 197.945312 178.710938 194.90625 179.339844 C 193.304688 179.683594 191.769531 180.183594 191.425781 181.71875 C 190.957031 183.820312 193.148438 183.378906 194.246094 183.882812 C 197.347656 185.324219 200.234375 186.953125 201.738281 190.304688 C 203.085938 193.34375 205.8125 192.90625 208.222656 192.1875 C 214.179688 190.367188 220.636719 193.597656 224.363281 198.734375 C 227.6875 203.277344 232.511719 207.257812 238.4375 207.445312 C 244.421875 207.667969 247.148438 211.175781 249.40625 215.53125 C 250.222656 217.128906 250.503906 217.503906 252.226562 216.941406 C 255.769531 215.71875 259.058594 215.6875 262.976562 217.003906 C 265.984375 218.007812 270.34375 219.605469 274.007812 215.96875 C 276.453125 213.558594 284.289062 216.222656 286.921875 219.136719 C 289.804688 222.332031 293.125 225.121094 296.324219 228.035156 C 297.167969 228.785156 298.171875 228.722656 299.050781 227.972656 C 299.800781 227.3125 300.585938 226.65625 301.179688 225.871094 C 305.695312 220.074219 307.386719 219.917969 312.808594 225.246094 C 314.125 226.53125 315.566406 227.5625 317.226562 228.003906 C 322.429688 229.414062 326.035156 232.828125 329.230469 236.871094 C 330.140625 238 338.101562 240.570312 339.101562 239.816406 C 339.949219 239.191406 340.355469 238 340.953125 237.058594 C 343.429688 233.234375 348.222656 232.234375 351.136719 235.429688 C 352.613281 237.058594 354.179688 237.75 356.027344 238.46875 C 358.128906 239.285156 360.007812 240.316406 361.199219 242.511719 C 362.390625 244.707031 365.242188 244.769531 367.183594 246.082031 C 370.164062 248.089844 372.953125 250.472656 376.996094 250 C 378.28125 249.84375 379.628906 250.816406 380.035156 251.914062 C 381.320312 255.390625 383.859375 256.175781 387.179688 255.953125 C 387.871094 255.890625 388.902344 256.175781 389.21875 256.675781 C 392.382812 261.6875 397.867188 260.59375 402.441406 261.785156 C 406.957031 262.972656 409.746094 265.730469 410.589844 270.085938 C 411.5625 275.195312 416.453125 277.417969 418.457031 281.679688 C 418.773438 282.339844 419.242188 281.839844 419.710938 281.679688 C 424.539062 279.925781 428.863281 280.835938 431.089844 285.035156 C 433.15625 288.953125 436.292969 290.644531 439.925781 292.773438 C 448.136719 297.539062 457.164062 300.921875 464.464844 307.1875 C 466.691406 309.101562 469.167969 309.195312 471.140625 306.9375 C 476.53125 300.796875 482.332031 303.019531 488.628906 306.15625 C 496.558594 310.101562 503.015625 316.402344 511.226562 319.816406 C 512.261719 320.257812 513.421875 320.695312 514.140625 321.476562 C 518.8125 326.679688 524.359375 325.113281 530.09375 324.140625 C 533.574219 323.546875 536.863281 321.164062 540.625 322.542969 C 546.203125 324.582031 546.796875 329.75 547.457031 334.484375 C 548.367188 341 548.523438 341.660156 554.882812 341.5 C 559.054688 341.40625 562.71875 342.816406 566.386719 344.417969 C 571.023438 346.421875 575.945312 346.140625 580.804688 346.015625 C 586.695312 345.859375 590.550781 349.210938 593.996094 353.316406 C 594.84375 354.351562 595.28125 356.167969 596.882812 355.632812 C 598.542969 355.101562 599.828125 353.722656 599.890625 351.6875 C 599.890625 351.5625 599.890625 351.433594 599.890625 351.308594 C 600.359375 344.164062 601.488281 343.132812 608.726562 343.132812 C 619.917969 343.101562 630.445312 345.574219 640.226562 351.089844 C 642.292969 352.25 644.675781 352.84375 646.683594 353.910156 C 650.035156 355.726562 654.863281 356.667969 654.453125 362.214844 C 654.390625 363.15625 655.207031 363.71875 655.894531 364.28125 C 657.496094 365.597656 658.875 367.417969 658.714844 369.359375 C 658.371094 374.183594 661.503906 377.164062 664.074219 380.421875 C 665.546875 382.269531 666.457031 384.054688 666.550781 386.46875 C 666.769531 392.640625 671.503906 396.527344 677.550781 395.746094 C 681.941406 395.179688 686.234375 397.46875 685.792969 401.132812 C 685.074219 407.433594 689.679688 409.40625 693.316406 412.257812 C 695.101562 413.667969 696.859375 415.046875 698.300781 416.769531 C 699.648438 418.367188 699.929688 420.1875 699.050781 422.035156 C 698.238281 423.757812 696.703125 424.699219 694.789062 424.574219 C 688.332031 424.230469 681.816406 425.671875 675.421875 423.382812 C 673.445312 422.695312 671.503906 422.882812 670.59375 425.890625 C 669.527344 429.492188 666.800781 431.96875 662.351562 432.53125 C 666.832031 435.792969 670.34375 439.613281 676.234375 439.582031 C 679.496094 439.550781 681.15625 442.9375 680.183594 446.226562 C 679.683594 447.949219 678.867188 449.421875 679.902344 451.492188 C 681.40625 454.53125 679.683594 457.476562 676.203125 457.507812 C 672.128906 457.539062 668.558594 459.921875 663.792969 459.199219 C 667.304688 463.585938 669.152344 468.289062 674.292969 470.480469 C 678.429688 472.234375 681.71875 475.402344 683.445312 479.820312 C 684.574219 482.703125 686.859375 483.734375 689.460938 482.515625 C 693.847656 480.414062 696.953125 481.980469 699.617188 485.300781 C 701.714844 487.933594 704.285156 488.875 707.734375 488.96875 C 713.1875 489.15625 716.164062 493.636719 718.734375 497.585938 C 720.394531 500.125 718.578125 503.320312 716.414062 505.328125 C 710.367188 510.839844 703.972656 510.96875 697.234375 506.046875 C 696.355469 505.390625 695.667969 504.355469 694.351562 504.417969 C 693.441406 504.449219 692.753906 504.324219 692.910156 505.828125 C 693.472656 511.1875 692.375 513.347656 688.929688 514.507812 C 684.730469 515.917969 680.78125 514.320312 677.960938 510.902344 C 676.832031 509.523438 678.023438 506.328125 674.980469 506.738281 C 673.101562 506.988281 671.847656 508.679688 670.3125 509.746094 C 669.402344 510.371094 668.496094 510.933594 667.773438 511.875 C 662.507812 518.519531 655.707031 523.1875 648.5 527.542969 C 641.917969 531.523438 635.648438 536.035156 628.753906 539.546875 C 621.984375 542.992188 615.339844 546.722656 608.664062 550.292969 C 603.777344 552.925781 600.796875 560.476562 603.871094 564.957031 C 606.441406 568.6875 606.347656 572.386719 606.316406 576.363281 C 606.285156 581.066406 610.546875 586.800781 615.121094 588.117188 C 620.761719 589.714844 622.675781 593.378906 620.542969 598.894531 C 620.105469 600.085938 620.136719 600.933594 620.574219 602.058594 C 621.703125 604.941406 621.421875 608.046875 620.980469 610.960938 C 620.542969 613.875 618.820312 616.003906 615.308594 615.691406 C 614.304688 615.597656 613.273438 615.597656 612.300781 615.816406 C 609.574219 616.378906 608.757812 618.292969 610.609375 620.328125 C 614.527344 624.652344 614.433594 628.476562 611.707031 633.835938 C 609.042969 639.066406 604.839844 643.488281 603.304688 649.410156 C 602.554688 652.324219 601.144531 655.207031 597.976562 656.804688 C 596.976562 657.304688 596.253906 658.996094 596.003906 660.28125 C 595.0625 664.605469 592.429688 667.332031 588.417969 668.773438 C 578.734375 672.222656 568.894531 673.570312 559.585938 668.210938 C 554.101562 665.046875 548.082031 662.039062 544.574219 656.617188 C 542.285156 653.105469 540.78125 649.0625 538.460938 645.460938 C 537.523438 643.957031 538.242188 642.015625 540.28125 640.761719 C 545.167969 637.753906 547.144531 629.730469 544.355469 624.652344 C 543.164062 622.460938 542.347656 620.421875 543.820312 617.980469 C 544.480469 616.882812 544.417969 615.472656 543.789062 614.34375 C 541.878906 610.835938 543.882812 608.671875 546.359375 606.699219 C 547.175781 606.070312 548.867188 606.226562 548.492188 604.597656 C 548.210938 603.28125 546.925781 602.875 545.828125 602.25 C 542.285156 600.242188 538.710938 600.054688 534.734375 600.617188 C 531.722656 601.027344 528.527344 601.214844 525.550781 599.585938 C 523.953125 598.707031 522.667969 599.238281 521.664062 601.152344 C 519.03125 606.195312 512.792969 608.359375 507.652344 606.195312 C 506.652344 605.789062 505.398438 605.195312 505.335938 603.972656 C 505.054688 598.738281 500.945312 596.828125 497.46875 594.039062 C 491.515625 589.273438 484.710938 586.988281 477.472656 585.546875 C 472.082031 584.480469 465.5625 578.277344 464.71875 573.042969 C 464.496094 571.632812 463.871094 570.285156 462.460938 570.660156 C 456.570312 572.261719 452.273438 567.839844 447.074219 566.839844 C 446.945312 566.808594 446.851562 566.683594 446.726562 566.683594 C 440.554688 566.871094 438.421875 562.921875 437.511719 557.71875 C 437.355469 556.875 437.292969 555.808594 436.101562 555.871094 C 434.914062 555.933594 434.882812 556.96875 434.882812 557.84375 C 434.816406 561.949219 432.375 563.171875 428.707031 563.171875 C 424.726562 563.171875 420.527344 563.863281 418.835938 558.691406 C 418.582031 557.9375 417.644531 557.34375 416.640625 557.875 C 415.449219 558.472656 413.851562 558.691406 413.945312 560.539062 C 414.039062 562.703125 413.160156 564.457031 411.6875 565.929688 C 409.808594 567.777344 407.707031 569.410156 409.179688 572.574219 C 409.402344 573.011719 409.148438 573.859375 408.835938 574.359375 C 406.582031 578.214844 402.035156 578.652344 398.652344 580.816406 C 396.675781 582.097656 394.324219 579.96875 392.632812 578.621094 C 390.722656 577.085938 388.777344 576.554688 386.398438 576.710938 C 384.296875 576.867188 382.195312 576.804688 380.191406 575.675781 C 378.46875 574.703125 376.460938 574.859375 374.738281 575.675781 C 371.761719 577.117188 369.285156 575.707031 366.996094 574.359375 C 364.675781 573.011719 364.519531 570.285156 365.835938 568.375 C 367.46875 565.960938 368.0625 563.078125 369.847656 560.820312 C 370.289062 560.289062 371.070312 559.695312 370.382812 558.910156 C 370.132812 558.628906 369.472656 558.660156 368.972656 558.660156 C 368.125 558.660156 367.371094 559.097656 367.371094 559.945312 C 367.46875 563.894531 365.835938 566.148438 361.667969 566.085938 C 358.472656 566.054688 355.242188 566.777344 352.390625 564.269531 C 349.882812 562.074219 349.164062 562.546875 348.570312 566.117188 C 348.128906 568.90625 342.863281 571.820312 339.730469 571.914062 C 335.6875 572.039062 331.738281 570.566406 327.632812 571.914062 C 324.4375 572.949219 321.679688 570.597656 320.363281 566.460938 C 319.265625 562.921875 320.300781 560.980469 323.558594 559.507812 C 326.976562 557.96875 328.886719 554.335938 332.367188 552.738281 C 333.492188 552.203125 332.679688 551.421875 331.832031 550.855469 C 330.421875 549.855469 329.136719 548.601562 327.789062 547.535156 C 325.59375 545.78125 324.3125 543.679688 324.5625 540.765625 C 324.75 538.917969 324.40625 537.039062 322.429688 536.410156 C 320.675781 535.816406 318.761719 535.753906 317.070312 537.101562 C 315.722656 538.199219 314.21875 539.074219 312.777344 540.109375 C 311.210938 541.207031 309.863281 541.707031 307.667969 541.207031 C 304.347656 540.453125 301.621094 542.960938 299.082031 544.871094 C 296.074219 547.128906 293.378906 549.667969 289.273438 549.824219 C 286.984375 549.917969 288.363281 551.453125 288.769531 552.203125 C 289.898438 554.335938 290.871094 556.527344 288.457031 558.191406 C 285.761719 560.070312 282.816406 562.042969 279.242188 560.570312 C 277.238281 559.757812 275.449219 559.253906 273.195312 559.851562 C 269.277344 560.886719 265.453125 559.601562 261.910156 558.066406 C 259.59375 557.0625 258.402344 557.65625 257.148438 559.347656 C 254.890625 562.390625 252.164062 564.332031 248.183594 562.796875 C 247.117188 562.390625 246.960938 562.921875 246.585938 563.640625 C 244.769531 567.089844 241.601562 566.652344 238.6875 565.960938 C 235.867188 565.273438 235.523438 562.734375 235.710938 560.195312 C 235.835938 558.378906 235.367188 557.59375 233.421875 558.347656 C 232.578125 558.691406 231.761719 557.9375 230.945312 557.71875 C 228.125 557 225.335938 556.625 222.828125 558.878906 C 220.417969 561.042969 218.035156 560.382812 216.5625 557.8125 C 215.652344 556.214844 214.996094 556.496094 213.648438 556.84375 C 210.855469 557.5625 208.351562 557.59375 206.5625 554.460938 C 205.089844 551.859375 203.710938 553.992188 202.519531 555.152344 C 200.671875 556.96875 198.445312 557.90625 196.03125 556.8125 C 194.027344 555.902344 192.273438 554.085938 192.554688 551.859375 C 192.960938 548.445312 193.589844 544.589844 197.035156 542.835938 C 200.765625 540.925781 199.292969 537.101562 200.703125 534.34375 C 201.203125 533.339844 198.414062 531.804688 197.160156 532.902344 C 194.714844 535.125 192.242188 535.378906 189.292969 534.65625 C 187.757812 534.28125 187.257812 534.6875 187.476562 536.632812 C 187.882812 540.453125 184.1875 542.554688 180.800781 540.734375 C 180.144531 540.390625 179.515625 539.984375 178.890625 539.578125 C 177.324219 538.574219 176.382812 536.285156 174.4375 536.410156 C 172.402344 536.535156 172.246094 539.136719 170.929688 540.421875 C 167.386719 543.902344 167.636719 544.058594 170.898438 548.007812 C 174.628906 552.519531 176.851562 557.90625 177.261719 563.707031 C 177.667969 569.503906 178.734375 574.640625 183.371094 578.746094 C 185.722656 580.816406 187.007812 583.886719 186.597656 587.207031 C 186.035156 591.40625 189.199219 595.792969 185.628906 600.117188 Z M 185.628906 600.117188 " fill-opacity="1" fill-rule="nonzero"/></g></svg>